<?xml version="1.0" encoding="utf-8"?>
<!-- Generator: Adobe Illustrator 19.2.1, SVG Export Plug-In . SVG Version: 6.00 Build 0)  -->
<svg version="1.1" id="Layer_1" xmlns="http://www.w3.org/2000/svg" xmlns:xlink="http://www.w3.org/1999/xlink" x="0px" y="0px"
	 viewBox="0 0 100 100" style="enable-background:new 0 0 100 100;" xml:space="preserve">
<style type="text/css">
	.st0{opacity:0.7;}
	.st1{fill:#FFFFFF;}
</style>
<g class="st0">
	<path class="st1" d="M50,12.2c-20.8,0-37.8,16.9-37.8,37.8c0,20.8,16.9,37.8,37.8,37.8c20.8,0,37.8-16.9,37.8-37.8
		C87.8,29.2,70.8,12.2,50,12.2z M45,62.6l-2.1-2.1L53.4,50l-11-11l2.1-2.1l11,11l2.1,2.1L45,62.6z M69.3,79.2
		c-2,1.4-4.2,1.7-6.5,1.6c12-5,20.5-16.9,20.5-30.7c0-18.4-14.9-33.3-33.3-33.3c-18.4,0-33.3,14.9-33.3,33.3
		c0,13.9,8.5,25.7,20.5,30.7c-2.3,0.1-4.5-0.2-6.5-1.6C21.2,72.9,15,62.2,15,50c0-19.3,15.7-35,35-35s35,15.7,35,35
		C85,62.2,78.8,72.9,69.3,79.2z"/>
</g>
</svg>
